<?xml version="1.0" encoding="UTF-8" standalone="no"?>
<svg
   xmlns:dc="http://purl.org/dc/elements/1.1/"
   xmlns:cc="http://creativecommons.org/ns#"
   xmlns:rdf="http://www.w3.org/1999/02/22-rdf-syntax-ns#"
   xmlns:svg="http://www.w3.org/2000/svg"
   xmlns="http://www.w3.org/2000/svg"
   width="37"
   height="27"
   viewBox="0 0 40 28"
   id="svg2"
   version="1.1">
  <defs
     id="defs4" />
  <metadata
     id="metadata7">
    <rdf:RDF>
      <cc:Work
         rdf:about="">
        <dc:format>image/svg+xml</dc:format>
        <dc:type
           rdf:resource="http://purl.org/dc/dcmitype/StillImage" />
        <dc:title></dc:title>
      </cc:Work>
    </rdf:RDF>
  </metadata>
  <g
     transform="matrix(1.0441864,0,0,1.0441864,0.00146687,-1070.6526)"
     id="layer1">
    <rect
       style="opacity:1;fill:#f0f0f0;fill-opacity:1;stroke:#000000;stroke-width:1.62162161;stroke-linecap:round;stroke-linejoin:bevel;stroke-miterlimit:4;stroke-dasharray:none;stroke-dashoffset:0;stroke-opacity:1"
       id="icon_border"
       width="36.5681"
       height="26.120071"
       x="0.77761352"
       y="1025.7947"
       rx="5.2149634" />
    <path
       d="m 11.808079,1031.3007 a 0.25460184,0.28455502 0 0 1 -0.254602,0.2845 0.25460184,0.28455502 0 0 1 -0.254602,-0.2845 0.25460184,0.28455502 0 0 1 0.254602,-0.2846 0.25460184,0.28455502 0 0 1 0.254602,0.2846 z m 0.619449,-0.2513 c 0.02313,0.2011 0.684729,0.4729 0.722262,0.821 0.02466,0.2287 -0.628021,0.3702 -0.628021,0.3702 0.04321,0.5258 0.363688,0.8284 -0.0302,1.2812 -0.364551,0.4192 -1.391592,0.4488 -2.368156,0.4488 -1.5206671,0 -2.7534111,-1.1 -2.7534111,-2.4569 0,-1.3569 1.232744,-2.4569 2.7534111,-2.4569 1.520667,0 2.121383,0.4042 2.304111,1.9926 z"
       style="opacity:1;fill:#a6a6a6;fill-opacity:1;stroke:#000000;stroke-width:0.13555253;stroke-linecap:round;stroke-linejoin:bevel;stroke-miterlimit:4;stroke-dasharray:none;stroke-dashoffset:0;stroke-opacity:1"
       id="man_face" />
    <g
       id="man_body">
      <path
         style="opacity:1;fill:#555555;fill-opacity:1;stroke:#000000;stroke-width:0.03613142;stroke-linecap:round;stroke-linejoin:bevel;stroke-miterlimit:4;stroke-dasharray:none;stroke-dashoffset:0;stroke-opacity:1"
         d="m 10.85002,1034.6162 c -0.297835,-0.4179 -0.802686,-0.7315 -1.3155781,-0.4441 -1.843945,1.0334 -4.183834,3.5406 -4.57601,3.6694 -0.155547,0.051 -0.350417,0.082 -0.617015,-0.026 -0.419645,-0.1949 -0.563443,-0.1911 -0.905635,0.024 -0.173248,0.1091 -0.337836,0.2523 -0.36585,0.318 -0.03407,0.08 -0.02016,0.1737 0.04206,0.2833 0.06236,0.1098 0.07654,0.2061 0.04315,0.2926 -0.03986,0.1032 -0.02512,0.1628 0.07333,0.2973 0.08715,0.1191 0.11157,0.1919 0.08389,0.2499 -0.04195,0.088 0.06404,0.3263 0.210767,0.474 0.0496,0.05 0.114752,0.1644 0.144804,0.255 0.06608,0.1992 0.241432,0.4498 0.394086,0.5632 0.165138,0.1227 0.497852,0.1362 0.734655,0.03 0.468051,-0.077 0.854176,-0.4476 0.976832,-0.69 -0.06812,-0.3405 -0.06444,-0.3565 0.10103,-0.4752 0.02079,-0.015 0.03111,-0.025 0.04693,-0.037 0.0027,7e-4 0.0049,0 0.0076,0 l 4.8789351,-3.4998 c 0.357698,-0.2566 0.33981,-0.8699 0.04197,-1.2877 z m -6.0241711,3.3693 c 0.270857,0.6061 0.470454,1.0813 0.879074,1.3185 -0.148321,0.1066 -0.153616,0.1342 -0.0915,0.4605 -0.411759,0.4829 -0.371806,0.2965 -0.769019,0.5814 -0.236698,0.1698 -0.534818,0.2171 -0.717551,0.1142 -0.219328,-0.1235 -0.265766,-0.1916 -0.313648,-0.4603 -0.05845,-0.328 0.05566,-0.4453 0.430771,-0.4427 0.171989,10e-4 0.32912,0.025 0.349245,0.052 0.08366,0.1142 -0.05524,0.3367 -0.238804,0.3831 -0.09932,0.025 -0.193786,0.084 -0.210077,0.1305 -0.02355,0.067 0.01176,0.079 0.172819,0.057 0.261996,-0.036 0.37765,-0.1212 0.418348,-0.3068 0.02928,-0.1337 -0.04058,-0.376 -0.136245,-0.4724 -0.01928,-0.019 -0.04797,-0.1291 -0.06367,-0.2431 -0.03062,-0.2222 -0.07646,-0.3175 -0.133325,-0.2767 -0.01949,0.014 -0.05503,-0.085 -0.07897,-0.2192 -0.03635,-0.2043 -0.05443,-0.2413 -0.110134,-0.2243 -0.0836,0.026 -0.08521,0.023 -0.167899,-0.252 l -0.06837,-0.2273 -0.175433,-0.021 -0.174943,-0.021 0.102102,-0.077 c 0.08016,-0.061 0.19048,-0.041 0.518737,0.091 0.363364,0.1461 0.43405,0.1554 0.549214,0.073 0.01172,-0.01 0.0192,-0.012 0.02931,-0.018 z m -0.89155,0.2519 c 0.05234,0.08 -0.01167,0.1667 -0.221251,0.1711 -0.107808,0 -0.239703,0.035 -0.292933,0.074 -0.10937,0.079 -0.224697,-0.031 -0.199786,-0.1898 0.02389,-0.152 0.136896,-0.2059 0.393779,-0.1875 0.168039,0.012 0.279482,0.07 0.320197,0.1326 z m 0.233979,0.3866 c 0.01148,0.022 0.0228,0.069 0.02837,0.1223 0.01247,0.1193 -0.0057,0.1291 -0.242948,0.1299 -0.143022,6e-4 -0.326463,0.051 -0.41461,0.1143 -0.08694,0.062 -0.172725,0.093 -0.19066,0.069 -0.154743,-0.2114 0.161217,-0.4862 0.536257,-0.4667 0.1353,0.01 0.25784,0.015 0.272291,0.019 0.0036,7e-4 0.0075,0 0.0113,0.013 z m 0.239636,0.4617 c 0.01096,0.015 0.01389,0.092 0.0062,0.1719 -0.01301,0.1344 -0.03016,0.1429 -0.240767,0.1227 -0.177895,-0.017 -0.263065,0.013 -0.397449,0.1368 -0.190841,0.1766 -0.314117,0.1363 -0.299302,-0.098 0.01331,-0.2102 0.29744,-0.3771 0.62735,-0.3685 0.156208,0 0.293001,0.02 0.303972,0.035 z"
         id="path4419" />
      <path
         style="opacity:1;fill:#555555;fill-opacity:1;stroke:#000000;stroke-width:0.06922664;stroke-linecap:round;stroke-linejoin:bevel;stroke-miterlimit:4;stroke-dasharray:none;stroke-dashoffset:0;stroke-opacity:1"
         d="m 9.1241479,1041.7008 c -0.04556,-0.031 -0.09471,-0.058 -0.147327,-0.08 -0.420877,-0.1733 -0.893137,0.048 -1.05886,0.496 l -2.140908,5.7881 -0.01557,-0.01 -0.04304,0.1629 -0.139019,0.3762 c -0.04399,0.1191 -0.06011,0.2416 -0.05464,0.361 l -0.20791,0.6314 1.161456,0.3931 0.1197,-0.2656 c 0,0 1.670035,0.9047 2.273813,1.0065 0.794337,0.134 0.9401341,-0.9062 0.428298,-1.24 -0.185955,-0.1212 -1.954312,-0.9285 -1.954312,-0.9285 l 2.091354,-5.6543 c 0.145065,-0.392 0.0059,-0.8243 -0.313094,-1.0423 z"
         id="path4421" />
      <path
         id="path4423"
         d="m 11.567365,1041.6221 c -0.05517,0 -0.110599,0.01 -0.165861,0.023 -0.44209,0.1084 -0.692795,0.5657 -0.56222,1.0253 l 1.686714,5.9363 -0.01546,0 0.06136,0.1569 0.109751,0.3858 c 0.03476,0.1221 0.09403,0.2305 0.168871,0.3237 l 0.204698,0.6324 1.169662,-0.3679 -0.06005,-0.2851 c 0,0 1.882136,-0.255 2.429695,-0.529 0.720373,-0.3605 0.224334,-1.2864 -0.385844,-1.2538 -0.221681,0.012 -2.125705,0.4035 -2.125705,0.4035 l -1.647839,-5.7992 c -0.114195,-0.4021 -0.481588,-0.669 -0.86778,-0.6568 z"
         style="opacity:1;fill:#555555;fill-opacity:1;stroke:#000000;stroke-width:0.06922664;stroke-linecap:round;stroke-linejoin:bevel;stroke-miterlimit:4;stroke-dasharray:none;stroke-dashoffset:0;stroke-opacity:1" />
      <rect
         rx="2.5385859"
         y="1033.959"
         x="7.1027293"
         height="8.8141365"
         width="6.0079861"
         id="rect4425"
         style="opacity:1;fill:#555555;fill-opacity:1;stroke:#000000;stroke-width:0.06894556;stroke-linecap:round;stroke-linejoin:bevel;stroke-miterlimit:4;stroke-dasharray:none;stroke-dashoffset:0;stroke-opacity:1" />
      <path
         id="path4431"
         d="m 9.4733619,1034.596 c -0.310857,0.4083 -0.460815,0.9834 -0.0343,1.3881 1.5333991,1.4549 4.6213931,2.9466 4.8606401,3.283 0.09489,0.1335 0.182341,0.3104 0.157618,0.5972 -0.06181,0.4585 -0.01553,0.5947 0.291752,0.8577 0.155587,0.1331 0.341086,0.2479 0.412174,0.2551 0.0865,0.01 0.171839,-0.032 0.258065,-0.1241 0.08638,-0.092 0.174146,-0.1342 0.266658,-0.1279 0.110427,0.01 0.16299,-0.024 0.262247,-0.1581 0.08794,-0.1186 0.150206,-0.1635 0.2138,-0.1542 0.09636,0.014 0.292658,-0.1579 0.390229,-0.3418 0.03299,-0.062 0.123086,-0.1583 0.200683,-0.2139 0.170681,-0.1221 0.358078,-0.3639 0.421147,-0.5433 0.06823,-0.194 -0.01751,-0.5158 -0.189391,-0.7104 -0.212197,-0.4242 -0.68066,-0.6832 -0.948524,-0.7285 -0.305023,0.166 -0.321403,0.1672 -0.483805,0.044 -0.02036,-0.015 -0.03271,-0.022 -0.04882,-0.034 1.4e-4,0 5.6e-4,0 5.6e-4,-0.01 l -4.788414,-3.6226 c -0.351069,-0.2656 -0.931495,-0.067 -1.2423511,0.3415 z m 5.0031351,4.7551 c 0.498675,-0.4383 0.893374,-0.7698 0.998778,-1.2303 0.145765,0.11 0.173731,0.1069 0.466945,-0.049 0.583257,0.2501 0.393341,0.2672 0.783188,0.5622 0.232305,0.1757 0.365849,0.4464 0.32174,0.6514 -0.05294,0.2461 -0.104256,0.3106 -0.34666,0.436 -0.295969,0.153 -0.441836,0.079 -0.550462,-0.2802 -0.04981,-0.1647 -0.07391,-0.3217 -0.05361,-0.3491 0.08424,-0.1137 0.337918,-0.047 0.436625,0.1146 0.0534,0.087 0.137524,0.1602 0.186868,0.1619 0.07138,0 0.0721,-0.035 0.0031,-0.1819 -0.11219,-0.2395 -0.227631,-0.3247 -0.417013,-0.3086 -0.136295,0.012 -0.34707,0.1502 -0.4108,0.2701 -0.01283,0.024 -0.109011,0.084 -0.213254,0.1328 -0.203223,0.095 -0.280636,0.1672 -0.224828,0.2094 0.01914,0.014 -0.06451,0.078 -0.185903,0.1404 -0.18436,0.095 -0.214383,0.1235 -0.181603,0.1716 0.04919,0.072 0.04728,0.074 -0.190893,0.2351 l -0.196833,0.1326 0.03216,0.1737 0.03221,0.1732 -0.103453,-0.075 c -0.0816,-0.059 -0.09583,-0.1697 -0.06706,-0.5223 0.03184,-0.3904 0.01981,-0.4606 -0.09322,-0.5461 -0.0115,-0.01 -0.01667,-0.015 -0.02602,-0.023 z m 0.504856,0.7768 c 0.06087,-0.074 0.162607,-0.038 0.228964,0.1606 0.03413,0.1023 0.104893,0.2185 0.157136,0.258 0.107341,0.081 0.03682,0.2238 -0.122048,0.247 -0.152311,0.022 -0.237226,-0.07 -0.295813,-0.3205 -0.03832,-0.164 -0.01557,-0.2878 0.03177,-0.3451 z m 0.299852,-0.338 c 0.01744,-0.017 0.05927,-0.042 0.108423,-0.063 0.110237,-0.047 0.12496,-0.033 0.196064,0.1935 0.04286,0.1365 0.145518,0.2967 0.232031,0.3622 0.08533,0.065 0.140291,0.1373 0.12221,0.1617 -0.156023,0.2104 -0.51214,-0.01 -0.604638,-0.3739 -0.03336,-0.1313 -0.06175,-0.2508 -0.06285,-0.2656 -2.8e-4,0 0.003,-0.01 0.0088,-0.015 z m 0.369946,-0.3657 c 0.01104,-0.015 0.08416,-0.041 0.162369,-0.057 0.132217,-0.027 0.145371,-0.014 0.188555,0.1936 0.03648,0.1749 0.08988,0.2475 0.248452,0.3391 0.225175,0.1299 0.223252,0.2596 -0.0046,0.3147 -0.204701,0.05 -0.448341,-0.1723 -0.537929,-0.4899 -0.04242,-0.1504 -0.06798,-0.2857 -0.05692,-0.3006 z"
         style="opacity:1;fill:#555555;fill-opacity:1;stroke:#000000;stroke-width:0.03613142;stroke-linecap:round;stroke-linejoin:bevel;stroke-miterlimit:4;stroke-dasharray:none;stroke-dashoffset:0;stroke-opacity:1" />
    </g>
    <path
       id="man_hat"
       d="m 7.6151069,1027.7587 -0.290902,2.5929 4.7652841,0 c 1.311607,0.01 1.830121,-0.024 2.392601,-0.038 0.38689,-0.01 0.470861,-0.6197 0,-0.7978 -0.450515,-0.1704 -2.392601,-0.1086 -2.392601,-0.1086 l -0.263199,-1.6621 z"
       style="opacity:1;fill:#555555;fill-opacity:1;stroke:#000000;stroke-width:0.11671402;stroke-linecap:round;stroke-linejoin:bevel;stroke-miterlimit:4;stroke-dasharray:none;stroke-dashoffset:0;stroke-opacity:1" />
    <path
       id="path4158"
       style="opacity:1;fill:#a6a6a6;fill-opacity:1;stroke:#000000;stroke-width:0.13555253;stroke-linecap:round;stroke-linejoin:bevel;stroke-miterlimit:4;stroke-dasharray:none;stroke-dashoffset:0;stroke-opacity:1"
       d="m 11.808079,1031.3007 a 0.25460184,0.28455502 0 0 1 -0.254602,0.2845 0.25460184,0.28455502 0 0 1 -0.254602,-0.2845 0.25460184,0.28455502 0 0 1 0.254602,-0.2846 0.25460184,0.28455502 0 0 1 0.254602,0.2846 z m 0.619449,-0.2513 c 0.02313,0.2011 0.684729,0.4729 0.722262,0.821 0.02466,0.2287 -0.628021,0.3702 -0.628021,0.3702 0.04321,0.5258 0.363688,0.8284 -0.0302,1.2812 -0.364551,0.4192 -1.391592,0.4488 -2.368156,0.4488 -1.5206671,0 -2.7534111,-1.1 -2.7534111,-2.4569 0,-1.3569 1.232744,-2.4569 2.7534111,-2.4569 1.520667,0 2.121383,0.4042 2.304111,1.9926 z" />
    <g
       id="g4160">
      <path
         id="path4162"
         d="m 10.85002,1034.6162 c -0.297835,-0.4179 -0.802686,-0.7315 -1.3155781,-0.4441 -1.843945,1.0334 -4.183834,3.5406 -4.57601,3.6694 -0.155547,0.051 -0.350417,0.082 -0.617015,-0.026 -0.419645,-0.1949 -0.563443,-0.1911 -0.905635,0.024 -0.173248,0.1091 -0.337836,0.2523 -0.36585,0.318 -0.03407,0.08 -0.02016,0.1737 0.04206,0.2833 0.06236,0.1098 0.07654,0.2061 0.04315,0.2926 -0.03986,0.1032 -0.02512,0.1628 0.07333,0.2973 0.08715,0.1191 0.11157,0.1919 0.08389,0.2499 -0.04195,0.088 0.06404,0.3263 0.210767,0.474 0.0496,0.05 0.114752,0.1644 0.144804,0.255 0.06608,0.1992 0.241432,0.4498 0.394086,0.5632 0.165138,0.1227 0.497852,0.1362 0.734655,0.03 0.468051,-0.077 0.854176,-0.4476 0.976832,-0.69 -0.06812,-0.3405 -0.06444,-0.3565 0.10103,-0.4752 0.02079,-0.015 0.03111,-0.025 0.04693,-0.037 0.0027,7e-4 0.0049,0 0.0076,0 l 4.8789351,-3.4998 c 0.357698,-0.2566 0.33981,-0.8699 0.04197,-1.2877 z m -6.0241711,3.3693 c 0.270857,0.6061 0.470454,1.0813 0.879074,1.3185 -0.148321,0.1066 -0.153616,0.1342 -0.0915,0.4605 -0.411759,0.4829 -0.371806,0.2965 -0.769019,0.5814 -0.236698,0.1698 -0.534818,0.2171 -0.717551,0.1142 -0.219328,-0.1235 -0.265766,-0.1916 -0.313648,-0.4603 -0.05845,-0.328 0.05566,-0.4453 0.430771,-0.4427 0.171989,10e-4 0.32912,0.025 0.349245,0.052 0.08366,0.1142 -0.05524,0.3367 -0.238804,0.3831 -0.09932,0.025 -0.193786,0.084 -0.210077,0.1305 -0.02355,0.067 0.01176,0.079 0.172819,0.057 0.261996,-0.036 0.37765,-0.1212 0.418348,-0.3068 0.02928,-0.1337 -0.04058,-0.376 -0.136245,-0.4724 -0.01928,-0.019 -0.04797,-0.1291 -0.06367,-0.2431 -0.03062,-0.2222 -0.07646,-0.3175 -0.133325,-0.2767 -0.01949,0.014 -0.05503,-0.085 -0.07897,-0.2192 -0.03635,-0.2043 -0.05443,-0.2413 -0.110134,-0.2243 -0.0836,0.026 -0.08521,0.023 -0.167899,-0.252 l -0.06837,-0.2273 -0.175433,-0.021 -0.174943,-0.021 0.102102,-0.077 c 0.08016,-0.061 0.19048,-0.041 0.518737,0.091 0.363364,0.1461 0.43405,0.1554 0.549214,0.073 0.01172,-0.01 0.0192,-0.012 0.02931,-0.018 z m -0.89155,0.2519 c 0.05234,0.08 -0.01167,0.1667 -0.221251,0.1711 -0.107808,0 -0.239703,0.035 -0.292933,0.074 -0.10937,0.079 -0.224697,-0.031 -0.199786,-0.1898 0.02389,-0.152 0.136896,-0.2059 0.393779,-0.1875 0.168039,0.012 0.279482,0.07 0.320197,0.1326 z m 0.233979,0.3866 c 0.01148,0.022 0.0228,0.069 0.02837,0.1223 0.01247,0.1193 -0.0057,0.1291 -0.242948,0.1299 -0.143022,6e-4 -0.326463,0.051 -0.41461,0.1143 -0.08694,0.062 -0.172725,0.093 -0.19066,0.069 -0.154743,-0.2114 0.161217,-0.4862 0.536257,-0.4667 0.1353,0.01 0.25784,0.015 0.272291,0.019 0.0036,7e-4 0.0075,0 0.0113,0.013 z m 0.239636,0.4617 c 0.01096,0.015 0.01389,0.092 0.0062,0.1719 -0.01301,0.1344 -0.03016,0.1429 -0.240767,0.1227 -0.177895,-0.017 -0.263065,0.013 -0.397449,0.1368 -0.190841,0.1766 -0.314117,0.1363 -0.299302,-0.098 0.01331,-0.2102 0.29744,-0.3771 0.62735,-0.3685 0.156208,0 0.293001,0.02 0.303972,0.035 z"
         style="opacity:1;fill:#555555;fill-opacity:1;stroke:#000000;stroke-width:0.03613142;stroke-linecap:round;stroke-linejoin:bevel;stroke-miterlimit:4;stroke-dasharray:none;stroke-dashoffset:0;stroke-opacity:1" />
      <path
         id="path4164"
         d="m 9.1241479,1041.7008 c -0.04556,-0.031 -0.09471,-0.058 -0.147327,-0.08 -0.420877,-0.1733 -0.893137,0.048 -1.05886,0.496 l -2.140908,5.7881 -0.01557,-0.01 -0.04304,0.1629 -0.139019,0.3762 c -0.04399,0.1191 -0.06011,0.2416 -0.05464,0.361 l -0.20791,0.6314 1.161456,0.3931 0.1197,-0.2656 c 0,0 1.670035,0.9047 2.273813,1.0065 0.794337,0.134 0.9401341,-0.9062 0.428298,-1.24 -0.185955,-0.1212 -1.954312,-0.9285 -1.954312,-0.9285 l 2.091354,-5.6543 c 0.145065,-0.392 0.0059,-0.8243 -0.313094,-1.0423 z"
         style="opacity:1;fill:#555555;fill-opacity:1;stroke:#000000;stroke-width:0.06922664;stroke-linecap:round;stroke-linejoin:bevel;stroke-miterlimit:4;stroke-dasharray:none;stroke-dashoffset:0;stroke-opacity:1" />
      <path
         style="opacity:1;fill:#555555;fill-opacity:1;stroke:#000000;stroke-width:0.06922664;stroke-linecap:round;stroke-linejoin:bevel;stroke-miterlimit:4;stroke-dasharray:none;stroke-dashoffset:0;stroke-opacity:1"
         d="m 11.567365,1041.6221 c -0.05517,0 -0.110599,0.01 -0.165861,0.023 -0.44209,0.1084 -0.692795,0.5657 -0.56222,1.0253 l 1.686714,5.9363 -0.01546,0 0.06136,0.1569 0.109751,0.3858 c 0.03476,0.1221 0.09403,0.2305 0.168871,0.3237 l 0.204698,0.6324 1.169662,-0.3679 -0.06005,-0.2851 c 0,0 1.882136,-0.255 2.429695,-0.529 0.720373,-0.3605 0.224334,-1.2864 -0.385844,-1.2538 -0.221681,0.012 -2.125705,0.4035 -2.125705,0.4035 l -1.647839,-5.7992 c -0.114195,-0.4021 -0.481588,-0.669 -0.86778,-0.6568 z"
         id="path4166" />
      <rect
         style="opacity:1;fill:#555555;fill-opacity:1;stroke:#000000;stroke-width:0.06894556;stroke-linecap:round;stroke-linejoin:bevel;stroke-miterlimit:4;stroke-dasharray:none;stroke-dashoffset:0;stroke-opacity:1"
         id="rect4168"
         width="6.0079861"
         height="8.8141365"
         x="7.1027293"
         y="1033.959"
         rx="2.5385859" />
      <path
         style="opacity:1;fill:#555555;fill-opacity:1;stroke:#000000;stroke-width:0.03613142;stroke-linecap:round;stroke-linejoin:bevel;stroke-miterlimit:4;stroke-dasharray:none;stroke-dashoffset:0;stroke-opacity:1"
         d="m 9.4733619,1034.596 c -0.310857,0.4083 -0.460815,0.9834 -0.0343,1.3881 1.5333991,1.4549 4.6213931,2.9466 4.8606401,3.283 0.09489,0.1335 0.182341,0.3104 0.157618,0.5972 -0.06181,0.4585 -0.01553,0.5947 0.291752,0.8577 0.155587,0.1331 0.341086,0.2479 0.412174,0.2551 0.0865,0.01 0.171839,-0.032 0.258065,-0.1241 0.08638,-0.092 0.174146,-0.1342 0.266658,-0.1279 0.110427,0.01 0.16299,-0.024 0.262247,-0.1581 0.08794,-0.1186 0.150206,-0.1635 0.2138,-0.1542 0.09636,0.014 0.292658,-0.1579 0.390229,-0.3418 0.03299,-0.062 0.123086,-0.1583 0.200683,-0.2139 0.170681,-0.1221 0.358078,-0.3639 0.421147,-0.5433 0.06823,-0.194 -0.01751,-0.5158 -0.189391,-0.7104 -0.212197,-0.4242 -0.68066,-0.6832 -0.948524,-0.7285 -0.305023,0.166 -0.321403,0.1672 -0.483805,0.044 -0.02036,-0.015 -0.03271,-0.022 -0.04882,-0.034 1.4e-4,0 5.6e-4,0 5.6e-4,-0.01 l -4.788414,-3.6226 c -0.351069,-0.2656 -0.931495,-0.067 -1.2423511,0.3415 z m 5.0031351,4.7551 c 0.498675,-0.4383 0.893374,-0.7698 0.998778,-1.2303 0.145765,0.11 0.173731,0.1069 0.466945,-0.049 0.583257,0.2501 0.393341,0.2672 0.783188,0.5622 0.232305,0.1757 0.365849,0.4464 0.32174,0.6514 -0.05294,0.2461 -0.104256,0.3106 -0.34666,0.436 -0.295969,0.153 -0.441836,0.079 -0.550462,-0.2802 -0.04981,-0.1647 -0.07391,-0.3217 -0.05361,-0.3491 0.08424,-0.1137 0.337918,-0.047 0.436625,0.1146 0.0534,0.087 0.137524,0.1602 0.186868,0.1619 0.07138,0 0.0721,-0.035 0.0031,-0.1819 -0.11219,-0.2395 -0.227631,-0.3247 -0.417013,-0.3086 -0.136295,0.012 -0.34707,0.1502 -0.4108,0.2701 -0.01283,0.024 -0.109011,0.084 -0.213254,0.1328 -0.203223,0.095 -0.280636,0.1672 -0.224828,0.2094 0.01914,0.014 -0.06451,0.078 -0.185903,0.1404 -0.18436,0.095 -0.214383,0.1235 -0.181603,0.1716 0.04919,0.072 0.04728,0.074 -0.190893,0.2351 l -0.196833,0.1326 0.03216,0.1737 0.03221,0.1732 -0.103453,-0.075 c -0.0816,-0.059 -0.09583,-0.1697 -0.06706,-0.5223 0.03184,-0.3904 0.01981,-0.4606 -0.09322,-0.5461 -0.0115,-0.01 -0.01667,-0.015 -0.02602,-0.023 z m 0.504856,0.7768 c 0.06087,-0.074 0.162607,-0.038 0.228964,0.1606 0.03413,0.1023 0.104893,0.2185 0.157136,0.258 0.107341,0.081 0.03682,0.2238 -0.122048,0.247 -0.152311,0.022 -0.237226,-0.07 -0.295813,-0.3205 -0.03832,-0.164 -0.01557,-0.2878 0.03177,-0.3451 z m 0.299852,-0.338 c 0.01744,-0.017 0.05927,-0.042 0.108423,-0.063 0.110237,-0.047 0.12496,-0.033 0.196064,0.1935 0.04286,0.1365 0.145518,0.2967 0.232031,0.3622 0.08533,0.065 0.140291,0.1373 0.12221,0.1617 -0.156023,0.2104 -0.51214,-0.01 -0.604638,-0.3739 -0.03336,-0.1313 -0.06175,-0.2508 -0.06285,-0.2656 -2.8e-4,0 0.003,-0.01 0.0088,-0.015 z m 0.369946,-0.3657 c 0.01104,-0.015 0.08416,-0.041 0.162369,-0.057 0.132217,-0.027 0.145371,-0.014 0.188555,0.1936 0.03648,0.1749 0.08988,0.2475 0.248452,0.3391 0.225175,0.1299 0.223252,0.2596 -0.0046,0.3147 -0.204701,0.05 -0.448341,-0.1723 -0.537929,-0.4899 -0.04242,-0.1504 -0.06798,-0.2857 -0.05692,-0.3006 z"
         id="path4170" />
      <path
         style="opacity:1;fill:#555555;fill-opacity:1;stroke:#000000;stroke-width:0.03613142;stroke-linecap:round;stroke-linejoin:bevel;stroke-miterlimit:4;stroke-dasharray:none;stroke-dashoffset:0;stroke-opacity:1"
         d="m 16.781479,1034.5544 c -0.297835,-0.4179 -0.802686,-0.7315 -1.315579,-0.4441 -1.843945,1.0334 -4.183834,3.5406 -4.57601,3.6694 -0.155547,0.051 -0.350417,0.082 -0.617015,-0.026 -0.4196446,-0.1949 -0.5634426,-0.1911 -0.9056346,0.024 -0.173248,0.1091 -0.337836,0.2523 -0.36585,0.318 -0.03407,0.08 -0.02016,0.1737 0.04206,0.2833 0.06236,0.1098 0.07654,0.2061 0.04315,0.2926 -0.03986,0.1032 -0.02512,0.1628 0.07333,0.2973 0.08715,0.1191 0.11157,0.1919 0.08389,0.2499 -0.04195,0.088 0.06404,0.3263 0.210767,0.474 0.0496,0.05 0.114752,0.1644 0.144804,0.255 0.06608,0.1992 0.241432,0.4498 0.394086,0.5632 0.1651376,0.1227 0.4978516,0.1362 0.7346546,0.03 0.468051,-0.077 0.854176,-0.4476 0.976832,-0.69 -0.06812,-0.3405 -0.06444,-0.3565 0.10103,-0.4752 0.02079,-0.015 0.03111,-0.025 0.04693,-0.037 0.0027,7e-4 0.0049,0 0.0076,0 l 4.878936,-3.4998 c 0.357698,-0.2566 0.33981,-0.8699 0.04197,-1.2877 z m -6.024172,3.3693 c 0.270857,0.6061 0.470454,1.0813 0.879074,1.3185 -0.148321,0.1066 -0.153616,0.1342 -0.0915,0.4605 -0.411759,0.4829 -0.371806,0.2965 -0.769019,0.5814 -0.236698,0.1698 -0.534818,0.2171 -0.717551,0.1142 -0.2193276,-0.1235 -0.2657656,-0.1916 -0.3136476,-0.4603 -0.05845,-0.328 0.05566,-0.4453 0.4307706,-0.4427 0.171989,10e-4 0.32912,0.025 0.349245,0.052 0.08366,0.1142 -0.05524,0.3367 -0.238804,0.3831 -0.09932,0.025 -0.193786,0.084 -0.210077,0.1305 -0.02355,0.067 0.01176,0.079 0.172819,0.057 0.261996,-0.036 0.37765,-0.1212 0.418348,-0.3068 0.02928,-0.1337 -0.04058,-0.376 -0.136245,-0.4724 -0.01928,-0.019 -0.04797,-0.1291 -0.06367,-0.2431 -0.03062,-0.2222 -0.07646,-0.3175 -0.133325,-0.2767 -0.01949,0.014 -0.05503,-0.085 -0.07897,-0.2192 -0.03635,-0.2043 -0.05443,-0.2413 -0.110134,-0.2243 -0.0836,0.026 -0.08521,0.023 -0.1678986,-0.252 l -0.06837,-0.2273 -0.175433,-0.021 -0.174943,-0.021 0.102102,-0.077 c 0.08016,-0.061 0.19048,-0.041 0.5187366,0.091 0.363364,0.1461 0.43405,0.1554 0.549214,0.073 0.01172,-0.01 0.0192,-0.012 0.02931,-0.018 z m -0.8915496,0.2519 c 0.05234,0.08 -0.01167,0.1667 -0.221251,0.1711 -0.107808,0 -0.239703,0.035 -0.292933,0.074 -0.10937,0.079 -0.224697,-0.031 -0.199786,-0.1898 0.02389,-0.152 0.136896,-0.2059 0.393779,-0.1875 0.168039,0.012 0.279482,0.07 0.320197,0.1326 z m 0.2339786,0.3866 c 0.01148,0.022 0.0228,0.069 0.02837,0.1223 0.01247,0.1193 -0.0057,0.1291 -0.2429476,0.1299 -0.143022,6e-4 -0.326463,0.051 -0.41461,0.1143 -0.08694,0.062 -0.172725,0.093 -0.19066,0.069 -0.154743,-0.2114 0.161217,-0.4862 0.536257,-0.4667 0.1353,0.01 0.2578396,0.015 0.2722906,0.019 0.0036,7e-4 0.0075,0 0.0113,0.013 z m 0.239636,0.4617 c 0.01096,0.015 0.01389,0.092 0.0062,0.1719 -0.01301,0.1344 -0.03016,0.1429 -0.240767,0.1227 -0.1778946,-0.017 -0.2630646,0.013 -0.3974486,0.1368 -0.190841,0.1766 -0.314117,0.1363 -0.299302,-0.098 0.01331,-0.2102 0.29744,-0.3771 0.6273496,-0.3685 0.156208,0 0.293001,0.02 0.303972,0.035 z"
         id="path4176" />
      <path
         style="opacity:1;fill:#555555;fill-opacity:1;stroke:#000000;stroke-width:0.06922664;stroke-linecap:round;stroke-linejoin:bevel;stroke-miterlimit:4;stroke-dasharray:none;stroke-dashoffset:0;stroke-opacity:1"
         d="m 15.055606,1041.639 c -0.04556,-0.031 -0.09471,-0.058 -0.147327,-0.08 -0.420877,-0.1733 -0.893137,0.048 -1.05886,0.496 l -2.140908,5.7881 -0.01557,-0.01 -0.04304,0.1629 -0.139019,0.3762 c -0.04399,0.1191 -0.06011,0.2416 -0.05464,0.361 l -0.20791,0.6314 1.161456,0.3931 0.1197,-0.2656 c 0,0 1.670035,0.9047 2.273813,1.0065 0.794337,0.134 0.940135,-0.9062 0.428298,-1.24 -0.185955,-0.1212 -1.954312,-0.9285 -1.954312,-0.9285 l 2.091354,-5.6543 c 0.145065,-0.392 0.0059,-0.8243 -0.313094,-1.0423 z"
         id="path4178" />
      <path
         id="path4180"
         d="m 17.498824,1041.5603 c -0.05517,0 -0.110599,0.01 -0.165861,0.023 -0.44209,0.1084 -0.692795,0.5657 -0.56222,1.0253 l 1.686714,5.9363 -0.01546,0 0.06136,0.1569 0.109751,0.3858 c 0.03476,0.1221 0.09403,0.2305 0.168871,0.3237 l 0.204698,0.6324 1.169662,-0.3679 -0.06005,-0.2851 c 0,0 1.882136,-0.255 2.429695,-0.529 0.720373,-0.3605 0.224334,-1.2864 -0.385844,-1.2538 -0.221681,0.012 -2.125705,0.4035 -2.125705,0.4035 l -1.647839,-5.7992 c -0.114195,-0.4021 -0.481588,-0.669 -0.86778,-0.6568 z"
         style="opacity:1;fill:#555555;fill-opacity:1;stroke:#000000;stroke-width:0.06922664;stroke-linecap:round;stroke-linejoin:bevel;stroke-miterlimit:4;stroke-dasharray:none;stroke-dashoffset:0;stroke-opacity:1" />
      <rect
         rx="2.5385859"
         y="1033.8972"
         x="13.034188"
         height="8.8141365"
         width="6.0079861"
         id="rect4182"
         style="opacity:1;fill:#555555;fill-opacity:1;stroke:#000000;stroke-width:0.06894556;stroke-linecap:round;stroke-linejoin:bevel;stroke-miterlimit:4;stroke-dasharray:none;stroke-dashoffset:0;stroke-opacity:1" />
      <path
         id="path4184"
         d="m 15.40482,1034.5342 c -0.310857,0.4083 -0.460815,0.9834 -0.0343,1.3881 1.5334,1.4549 4.621394,2.9466 4.860641,3.283 0.09489,0.1335 0.182341,0.3104 0.157618,0.5972 -0.06181,0.4585 -0.01553,0.5947 0.291752,0.8577 0.155587,0.1331 0.341086,0.2479 0.412174,0.2551 0.0865,0.01 0.171839,-0.032 0.258065,-0.1241 0.08638,-0.092 0.174146,-0.1342 0.266658,-0.1279 0.110427,0.01 0.16299,-0.024 0.262247,-0.1581 0.08794,-0.1186 0.150206,-0.1635 0.2138,-0.1542 0.09636,0.014 0.292658,-0.1579 0.390229,-0.3418 0.03299,-0.062 0.123086,-0.1583 0.200683,-0.2139 0.170681,-0.1221 0.358078,-0.3639 0.421147,-0.5433 0.06823,-0.194 -0.01751,-0.5158 -0.189391,-0.7104 -0.212197,-0.4242 -0.68066,-0.6832 -0.948524,-0.7285 -0.305023,0.166 -0.321403,0.1672 -0.483805,0.044 -0.02036,-0.015 -0.03271,-0.022 -0.04882,-0.034 1.4e-4,0 5.6e-4,0 5.6e-4,-0.01 l -4.788414,-3.6226 c -0.351069,-0.2656 -0.931495,-0.067 -1.242352,0.3415 z m 5.003136,4.7551 c 0.498675,-0.4383 0.893374,-0.7698 0.998778,-1.2303 0.145765,0.11 0.173731,0.1069 0.466945,-0.049 0.583257,0.2501 0.393341,0.2672 0.783188,0.5622 0.232305,0.1757 0.365849,0.4464 0.32174,0.6514 -0.05294,0.2461 -0.104256,0.3106 -0.34666,0.436 -0.295969,0.153 -0.441836,0.079 -0.550462,-0.2802 -0.04981,-0.1647 -0.07391,-0.3217 -0.05361,-0.3491 0.08424,-0.1137 0.337918,-0.047 0.436625,0.1146 0.0534,0.087 0.137524,0.1602 0.186868,0.1619 0.07138,0 0.0721,-0.035 0.0031,-0.1819 -0.11219,-0.2395 -0.227631,-0.3247 -0.417013,-0.3086 -0.136295,0.012 -0.34707,0.1502 -0.4108,0.2701 -0.01283,0.024 -0.109011,0.084 -0.213254,0.1328 -0.203223,0.095 -0.280636,0.1672 -0.224828,0.2094 0.01914,0.014 -0.06451,0.078 -0.185903,0.1404 -0.18436,0.095 -0.214383,0.1235 -0.181603,0.1716 0.04919,0.072 0.04728,0.074 -0.190893,0.2351 l -0.196833,0.1326 0.03216,0.1737 0.03221,0.1732 -0.103453,-0.075 c -0.0816,-0.059 -0.09583,-0.1697 -0.06706,-0.5223 0.03184,-0.3904 0.01981,-0.4606 -0.09322,-0.5461 -0.0115,-0.01 -0.01667,-0.015 -0.02602,-0.023 z m 0.504856,0.7768 c 0.06087,-0.074 0.162607,-0.038 0.228964,0.1606 0.03413,0.1023 0.104893,0.2185 0.157136,0.258 0.107341,0.081 0.03682,0.2238 -0.122048,0.247 -0.152311,0.022 -0.237226,-0.07 -0.295813,-0.3205 -0.03832,-0.164 -0.01557,-0.2878 0.03177,-0.3451 z m 0.299852,-0.338 c 0.01744,-0.017 0.05927,-0.042 0.108423,-0.063 0.110237,-0.047 0.12496,-0.033 0.196064,0.1935 0.04286,0.1365 0.145518,0.2967 0.232031,0.3622 0.08533,0.065 0.140291,0.1373 0.12221,0.1617 -0.156023,0.2104 -0.51214,-0.01 -0.604638,-0.3739 -0.03336,-0.1313 -0.06175,-0.2508 -0.06285,-0.2656 -2.8e-4,0 0.003,-0.01 0.0088,-0.015 z m 0.369946,-0.3657 c 0.01104,-0.015 0.08416,-0.041 0.162369,-0.057 0.132217,-0.027 0.145371,-0.014 0.188555,0.1936 0.03648,0.1749 0.08988,0.2475 0.248452,0.3391 0.225175,0.1299 0.223252,0.2596 -0.0046,0.3147 -0.204701,0.05 -0.448341,-0.1723 -0.537929,-0.4899 -0.04242,-0.1504 -0.06798,-0.2857 -0.05692,-0.3006 z"
         style="opacity:1;fill:#555555;fill-opacity:1;stroke:#000000;stroke-width:0.03613142;stroke-linecap:round;stroke-linejoin:bevel;stroke-miterlimit:4;stroke-dasharray:none;stroke-dashoffset:0;stroke-opacity:1" />
    </g>
    <path
       style="opacity:1;fill:#555555;fill-opacity:1;stroke:#000000;stroke-width:0.11671402;stroke-linecap:round;stroke-linejoin:bevel;stroke-miterlimit:4;stroke-dasharray:none;stroke-dashoffset:0;stroke-opacity:1"
       d="m 7.6151069,1027.7587 -0.290902,2.5929 4.7652841,0 c 1.311607,0.01 1.830121,-0.024 2.392601,-0.038 0.38689,-0.01 0.470861,-0.6197 0,-0.7978 -0.450515,-0.1704 -2.392601,-0.1086 -2.392601,-0.1086 l -0.263199,-1.6621 z"
       id="path4172" />
    <path
       d="m 17.739538,1031.2389 a 0.25460184,0.28455502 0 0 1 -0.254602,0.2845 0.25460184,0.28455502 0 0 1 -0.254602,-0.2845 0.25460184,0.28455502 0 0 1 0.254602,-0.2846 0.25460184,0.28455502 0 0 1 0.254602,0.2846 z m 0.619449,-0.2513 c 0.02313,0.2011 0.684729,0.4729 0.722262,0.821 0.02466,0.2287 -0.628021,0.3702 -0.628021,0.3702 0.04321,0.5258 0.363688,0.8284 -0.0302,1.2812 -0.364551,0.4192 -1.391592,0.4488 -2.368156,0.4488 -1.520668,0 -2.753412,-1.1 -2.753412,-2.4569 0,-1.3569 1.232744,-2.4569 2.753412,-2.4569 1.520667,0 2.121383,0.4042 2.304111,1.9926 z"
       style="opacity:1;fill:#a6a6a6;fill-opacity:1;stroke:#000000;stroke-width:0.13555253;stroke-linecap:round;stroke-linejoin:bevel;stroke-miterlimit:4;stroke-dasharray:none;stroke-dashoffset:0;stroke-opacity:1"
       id="path4174" />
    <path
       id="path4186"
       d="m 13.546565,1027.6969 -0.290902,2.5929 4.765285,0 c 1.311607,0.01 1.830121,-0.024 2.392601,-0.038 0.38689,-0.01 0.470861,-0.6197 0,-0.7978 -0.450515,-0.1704 -2.392601,-0.1086 -2.392601,-0.1086 l -0.263199,-1.6621 z"
       style="opacity:1;fill:#555555;fill-opacity:1;stroke:#000000;stroke-width:0.11671402;stroke-linecap:round;stroke-linejoin:bevel;stroke-miterlimit:4;stroke-dasharray:none;stroke-dashoffset:0;stroke-opacity:1" />
  </g>
  <text
     id="text4188"
     y="21.304272"
     x="22.838709"
     style="font-style:normal;font-weight:normal;font-size:21.62162209px;line-height:125%;font-family:sans-serif;letter-spacing:0px;word-spacing:0px;fill:#000000;fill-opacity:1;stroke:none;stroke-width:1px;stroke-linecap:butt;stroke-linejoin:miter;stroke-opacity:1"
     xml:space="preserve"><tspan
       y="21.304272"
       x="22.838709"
       id="tspan4190">A</tspan></text>
</svg>
